<svg xmlns="http://www.w3.org/2000/svg" xmlns:xlink="http://www.w3.org/1999/xlink" viewBox="0 0 106 112"><defs><style>.cls-1{fill:#fff;}</style><symbol id="Regal_Vector_Pack_09" data-name="Regal Vector Pack 09" viewBox="0 0 211.52 223.5"><path class="cls-1" d="M122.26,16.93c-2.57-1.63-3.15-5.25-3.15-5.25-2,3-.7,6.89-.7,6.89A6.44,6.44,0,0,0,122.26,16.93Zm-23,36.9s13.54,7.83,15.88,20.55a17.87,17.87,0,0,0-.35-12,26.22,26.22,0,0,1,9.69,14.13s3.51-8.64.94-14.13c0,0,7.82,2.33,9.45,8.64,0,0,2.46-9.11-3.15-13.9,0,0,7.71-.23,11.56,5.84,0,0,.59-6.77-7.24-12.49S124.6,34.68,131.6,29.08s9.23-2.69,10.75-6.08-3.86-7-9.34-4.2a3,3,0,0,0-3.86-2.57c-3.5.58-8.76,4.79-12.61,3.62a7.55,7.55,0,0,1,1,7.94A11,11,0,0,0,113.5,20c-4-3-5.13-9.11-5.13-9.11s-6.54,7.59-.82,18.22C107.55,29.08,97.86,36.67,99.26,53.83ZM129.5,21.14s-2.1,4.32-6.65,3.73C122.85,24.87,121.56,22.07,129.5,21.14ZM92.89,211.48a13.58,13.58,0,0,1,2.8,12c4-2.94,4.5-9.74,4.56-11.68A20.63,20.63,0,0,1,92.89,211.48ZM129,36.2c.11,4.09,2.56,6.19,9.22,6S147,38.3,147,38.3s-2.8,1.64-7.94.7-2.92-5.37,4-8.41a18.71,18.71,0,0,1,13.08-.7,15.34,15.34,0,0,0-11.91-7.47c-1.05,4.32-1.64,2.45-8.53,5.49S129,36.2,129,36.2Zm65,23.43c-.64,3.53-2.92,4.24-2.92,4.24,4.88-.48,6.11,3.4,6.11,3.4C197.94,63.21,194,59.63,194,59.63ZM103.91,211a13.57,13.57,0,0,1,7.89,9.33c2.33-4.7-.79-11.41-1.45-12.71A22.66,22.66,0,0,1,103.91,211ZM159.52,92a39.26,39.26,0,0,0,4.73-5.11c8.91-11.42,12.65-7.63,12.65-7.63s.14-3.53-3.43-2.83c0,0,4.83-5.14,9.37-3.81,0,0-.51-4-4.1-3.48a8,8,0,0,1,7.68-3.89A4.06,4.06,0,0,0,182.05,63a8,8,0,0,0,2-2h0A4.92,4.92,0,0,0,193,56.7c-.06-.12-.12-.25-.19-.38l-.06-.11a5.49,5.49,0,0,0-3.13-2.47c-3.06-1-6.64.43-7.68.9,0,0,0,0,0,0a7.36,7.36,0,0,1,1.05-2,5.53,5.53,0,0,0,6.23-8.25,5.44,5.44,0,0,0-3-2.32,3.5,3.5,0,0,0-.46-.14l-.13,0a6.25,6.25,0,0,0-4.44.69,10.68,10.68,0,0,0-3.91,4.24,7.26,7.26,0,0,1-.29-1.22,7.11,7.11,0,0,1,.23-1.74,5.54,5.54,0,0,0-.85-11l-.47,0-.15,0a6.26,6.26,0,0,0-3.87,2.27c-2.28,2.77-2.27,7-2.2,8.38A11,11,0,0,0,167,41.84c4.07,5.95,2.5,13.35,1.38,16.87-1.4,3.45-3.85,6.68-7.53,10.41a7.85,7.85,0,0,0-.14-2.65,47.69,47.69,0,0,1-3.86,5.32A35.08,35.08,0,0,1,159.52,92ZM190.71,49c3.35-4.4,7.5-2.44,7.5-2.44-2.78-3.74-8.75-3.23-8.75-3.23C191.88,46.59,190.71,49,190.71,49Zm-7.58-11.38c1.5-5.33,6.08-5,6.08-5-4-2.45-9.32.22-9.32.22C183.33,35,183.13,37.64,183.13,37.64ZM180.77,174.4a22.87,22.87,0,0,1-1,7.21,13.54,13.54,0,0,1,12.18-1C189.48,176,182.21,174.63,180.77,174.4Zm11-68.07a5.53,5.53,0,0,0,10.44-3.67,4,4,0,0,0-.16-.45s0-.09-.05-.13a6.22,6.22,0,0,0-3.2-3.15,10.64,10.64,0,0,0-5.73-.62,8.47,8.47,0,0,1,.8-1,7.69,7.69,0,0,1,1.54-.85,5.53,5.53,0,0,0,8.35-7.26c-.09-.12-.2-.24-.31-.36l-.1-.1A6.18,6.18,0,0,0,199.22,87c-3.59-.19-7,2.37-8,3.22a10.65,10.65,0,0,0-.33-3.14c-2.35,6.82-9.22,10-12.71,11.17-3.61.93-7.66.89-12.86.16a8.21,8.21,0,0,0,2.06-1.69c-15.14,1.12-22-4.22-24.89-8.21a9.44,9.44,0,0,1-1.5-3.3,25.11,25.11,0,0,0,15.76,8.88c5.14-18.45-11.91-35.73-11.91-35.73a20.76,20.76,0,0,1-.47,10.74c-2.1-7-7.47-8.64-7.47-8.64A20,20,0,0,1,135,77a12.57,12.57,0,0,0-6.54-10.16c.7,8.3-4.44,14.83-4.44,14.83-.46-6.3-6-12.61-6-12.61A11.69,11.69,0,0,1,114,79.13l-.11-.13c-.51-4.2-3.15-15.32-16.93-23C79.64,46.47,23.59,36.2,2.1,0c0,0,3.51,29.66,53,50C74,57.74,86.37,62.5,94.67,66c-1,2.42-.88,6.9,9,11,0,0-5.38,4.44,6.07,9.11,0,0-3.5,4.2,7,8.17,0,0,5.83,8.41.46,14.72,0,0,5.14-.7,6.07-4,0,0,3.74,5.83-.46,9.57,0,0,9.71,1,11.86-8.89,2.27,2,7.84,5.72,18.38,6,14.48.35,13.66,5.61,13.66,5.61s2.92-2,.24-4.44c0,0,7,.82,8.64,5.25,0,0,2.92-2.8.35-5.37a8.06,8.06,0,0,1,7.71,3.86,4.08,4.08,0,0,0-.82-4.85,8.05,8.05,0,0,0,2.82.42v0a4.92,4.92,0,0,0,6.19,6.78,4.86,4.86,0,0,0,2.51-2.2l.19-.38.06-.11a5.55,5.55,0,0,0,.12-4c-1-3.06-4.31-5.08-5.3-5.63h0A7.53,7.53,0,0,1,191.77,106.33Zm-4.24,13.26c3.3,3.64.92,6.94.92,6.94,3.71-1.82,4.23-7.11,4.23-7.11C189.46,121,187.53,119.59,187.53,119.59ZM205.79,92.1c.35,4-1.93,5.48-1.93,5.48,5.17-2,7.66,1.88,7.66,1.88C211.13,94.82,205.79,92.1,205.79,92.1Zm-6.56,18.35c5.53.06,6.44,4.57,6.44,4.57,1.34-4.46-2.63-9-2.63-9C201.88,109.94,199.23,110.45,199.23,110.45Zm-20.92,74.62a20.32,20.32,0,0,1-4.58,5.78,13.57,13.57,0,0,1,11.4,4.75C185.08,190.62,179.86,186.25,178.31,185.07ZM120.92,130.2s8.06,3.15,10.16,10.34c0,0,.7-9.64,7.88-16.12s9.81-10.68,9.81-10.68-7.53.35-12.61-3c0,0-5.08,9.63-19.62,6.48,0,0,5.78-2.63,6.13-7.71,0,0-5.6,4.38-10.51,1.4,0,0,8.59-5.78,3.15-14.36,0,0-3.15-.52-3.5-1.75,0,0,.18,28.38-17.52,37.13s-18.74-12.43-18.74-12.43a14.31,14.31,0,0,0-2.14,9.24c-4-2.56-10.17-7.76-16.82-17.92-6.55-10-15.74-15.08-23.88-15.12A14.67,14.67,0,0,0,22.36,99.6a14.93,14.93,0,0,0-4.26,11.07V111c.06,5,2.5,9.16,5.67,12.61,4.79,5.22,11.44,9.58,17.46,15.12s11.36,12,13.88,21.35a25,25,0,0,1,.94,6.52c0,4.36-1.42,7.28-3.47,9.27a11.48,11.48,0,0,1-7.29,3c-5.68-.4-15.46-2.81-15.63-14.73-.23-16.81-7.47-26.62-7.47-26.62s2.57,8.17-.47,14.71c0,0-4.44-23.35-21.72-33.16,0,0,10.51,17,9.34,32,0,0-3.5-1.17-3.5-7,0,0-6.07,13.31,7,25a10.18,10.18,0,0,1-8.41-4s4,16.81,26.86,21c14.24,2.61,23.14-1.1,27.39-7.66a19.41,19.41,0,0,0,3.67-11.86,31.52,31.52,0,0,0-1.16-8.16C57.3,144,47.4,135.38,39.06,128.63c-4.18-3.38-8-6.36-10.63-9.24s-4-5.49-4-8.5a1.77,1.77,0,0,1,0-.22c0-3.22,1-5.21,2.34-6.54a8.37,8.37,0,0,1,6-2.1c5.41,0,13,3.72,18.6,12.26,5.9,9,11.67,14.62,16.14,18-2.58.66-5.42,2.42-8.13,6.21,0,0,5.21-4,17.83,1.52a11,11,0,0,0-6.33,3s14-2.63,25.23,6.48c10.21,8.3,6.61,16.89,1.91,17.29-.55-1-2.45-3.56-7-1-5.61,3.15-10.69,12.44-9.29,28,0,0,1.26-3.22,2.74-6.15,0,.18,0,.36.07.54,1.79,12.29,2.72,20.55,10.5,21.61,5.33,1.07,11.62-1.62,13.84-3.22,4.38-3.15,7-8.93.88-10.86s-8.06,1.75-10.16,1.75a1,1,0,0,1-.73-.37,5.86,5.86,0,0,1-.32-2.25c.17-6.31-1.75-19.27,10.51-18.57s26.8-11.91,22.59-25.75S120.92,130.2,120.92,130.2Zm-4.87,69.5a11.73,11.73,0,0,1-3.43,6c-.31.41-.52.65-.52.65a13.59,13.59,0,0,1,12.59,2.34C123.71,203.89,117.88,200.62,116.05,199.7Zm64.75-27.44a13.56,13.56,0,0,1,9.25-8.85c-4.49-2-10.54.81-12.35,1.76a11.69,11.69,0,0,1,2.87,6.29C180.72,172,180.8,172.26,180.8,172.26Zm-10-4.27c-5.15,3.85-3.29,7.56-4.51,9.27a1,1,0,0,1-.73.38,6.08,6.08,0,0,1-2-1.06c-5-3.82-16.67-9.83-8.94-19.37s6-28.72-7.71-33.38c-1-.34-2-.64-2.91-.92-2.27,1.8-10.93,9.43-10.93,21.3a36,36,0,0,0,.61,7.24c6.37,1.09,8.55,6.19,6.77,9.17-1.17-.16-4.32-.08-4.89,5.1-.72,6.39,3.85,15.93,17.33,23.9,0,0-1.88-2.9-3.39-5.81l.47.26c11,5.72,18.28,9.78,23.68,4.09,4-3.71,5.47-10.38,5.47-13.12C179.06,169.64,175.9,164.14,170.76,168ZM77.83,61.44c-4.8-1.93-10.5-4.21-17.06-6.88-12.68-4.41-26.24-9.93-35.08-15.79,0,0,6.77,18.45,42,28.26,0,0-26.86-4.44-35.73-11.68,0,0,9.57,18.22,38.3,22.89a46.48,46.48,0,0,1-21.25-3.51s2.56,10,20.31,13.08c15.22,2.61,34.2,10.88,37.69,23.78a63.89,63.89,0,0,0,2.66-16.76v-2a7.2,7.2,0,0,1-2.42-3.61,5,5,0,0,1-.14-1.93c-4.14-2-6.35-4.22-6.75-6.82a5.24,5.24,0,0,1,.24-2.52c-7.43-3.7-8.75-7.78-8.42-10.72C88.32,65.64,83.61,63.75,77.83,61.44Z"/></symbol></defs><title>Asset 1</title><g id="Layer_2" data-name="Layer 2"><g id="Layer_1-2" data-name="Layer 1"><use width="211.52" height="223.5" transform="scale(0.5 0.5)" xlink:href="#Regal_Vector_Pack_09"/></g></g></svg>